<svg width="33" height="33" viewBox="0 0 33 33" fill="none" xmlns="http://www.w3.org/2000/svg">
<path d="M24.3231 15.4688H5.15625C4.88275 15.4688 4.62044 15.5774 4.42705 15.7708C4.23365 15.9642 4.125 16.2265 4.125 16.5C4.125 16.7735 4.23365 17.0358 4.42705 17.2292C4.62044 17.4226 4.88275 17.5313 5.15625 17.5313H24.3231L16.8011 25.0511C16.6075 25.2448 16.4987 25.5074 16.4987 25.7813C16.4987 26.0551 16.6075 26.3178 16.8011 26.5114C16.9948 26.705 17.2574 26.8138 17.5312 26.8138C17.8051 26.8138 18.0677 26.705 18.2614 26.5114L27.5426 17.2301C27.6387 17.1344 27.7149 17.0206 27.7668 16.8953C27.8188 16.77 27.8456 16.6357 27.8456 16.5C27.8456 16.3644 27.8188 16.2301 27.7668 16.1048C27.7149 15.9795 27.6387 15.8657 27.5426 15.7699L18.2614 6.48865C18.0677 6.295 17.8051 6.18622 17.5312 6.18622C17.2574 6.18622 16.9948 6.295 16.8011 6.48865C16.6075 6.68229 16.4987 6.94492 16.4987 7.21877C16.4987 7.49262 16.6075 7.75525 16.8011 7.9489L24.3231 15.4688Z" fill="#357960"/>
</svg>
